# xmcd CD database file
#
# Track frame offsets:
#	150
#	40905
#	96549
#	140351
#	191426
#	202432
#	218343
#	252673
#	280207
#
# Disc length: 3746 seconds
#
# Revision: 0
# Processed by: cddbd v1.5.1PL2 Copyright (c) Steve Scherf et al.
# Submitted via: CDex 1.51
#
DISCID=8f0ea009
DTITLE=Miles Davis - Filmore West 1970
DYEAR=1900
DGENRE=Jazz
TTITLE0=Directions
TTITLE1=Miles Runs Voodoo Down~Untitled
TTITLE2=Paraphernalia
TTITLE3=Footprints
TTITLE4=I Fall In Love Too Easiliy
TTITLE5=Sanctuary
TTITLE6=It's About That Time
TTITLE7=Willie Nelson
TTITLE8=The Theme
EXTD=
EXTT0=
EXTT1=
EXTT2=
EXTT3=
EXTT4=
EXTT5=
EXTT6=
EXTT7=
EXTT8=
PLAYORDER=
